<svg width="71" height="71" fill="none" xmlns="http://www.w3.org/2000/svg"><path d="M35.5.083C15.97.083.083 15.971.083 35.5c0 19.529 15.888 35.417 35.417 35.417 19.528 0 35.416-15.888 35.416-35.417C70.916 15.971 55.028.083 35.5.083zM7.166 35.5c0-3.184.553-6.24 1.527-9.099l5.557 5.557 7.083 7.084v7.083l7.083 7.083 3.542 3.542v6.839C18.008 61.836 7.166 49.922 7.166 35.5zm50.752 17.258c-2.312-1.862-5.819-3.091-8.252-3.091v-3.542a7.083 7.083 0 00-7.083-7.083H28.416V28.417a7.083 7.083 0 007.084-7.084v-3.541h3.541a7.083 7.083 0 007.084-7.084V9.253c10.37 4.21 17.708 14.382 17.708 26.247 0 6.25-2.081 12.322-5.915 17.258z" fill="#fff"/></svg>